<svg width="140" height="29" viewBox="0 0 140 29" fill="none" xmlns="http://www.w3.org/2000/svg">
<path d="M53.011 7.43771C50.1621 7.43771 47.9238 8.94952 47.9238 11.8125C47.9238 14.6977 50.1621 16.186 53.011 16.186H62.469C65.2245 16.186 67.5804 14.6517 67.5804 11.8125C67.5804 8.97208 65.2015 7.43771 62.4937 7.43771H53.011ZM61.9517 1.04802C68.2636 1.04802 73.8215 4.5977 73.8215 11.7886C73.8215 18.9349 68.31 22.5996 61.9747 22.5996H53.5052C47.1703 22.5996 41.6584 18.9575 41.6584 11.7886C41.6584 4.73618 47.1938 1.04802 53.5052 1.04802H61.9517Z" fill="black"/>
<path d="M77.3222 25.4098C77.3222 27.3433 75.7546 28.9104 73.8216 28.9104C71.8886 28.9104 70.321 27.3433 70.321 25.4098C70.321 23.4768 71.8886 21.9097 73.8216 21.9097C75.7546 21.9097 77.3222 23.4768 77.3222 25.4098Z" fill="black"/>
<path d="M36.0113 1.07913V28.3408H28.251V12.1215L21.3613 28.3408H14.6535L7.71788 12.0795V28.3408H0V1.07913H9.43985L18.0979 21.6096L26.5733 1.07913H36.0113Z" fill="black"/>
<path d="M95.482 28.9595C85.3843 28.9595 81.8594 25.3917 81.8594 18.8148H89.5281C89.6711 21.6088 90.8621 23.4573 95.2909 23.4573C99.245 23.4573 100.197 21.9959 100.197 20.6204C100.197 15.2899 82.3832 19.1157 82.3832 9.4869C82.3832 4.67229 85.1936 0.674864 94.7675 0.674864C104.484 0.674864 107.199 4.80104 107.342 10.3895H99.721C99.5781 8.06844 98.8162 6.17702 94.5295 6.17702C90.9563 6.17702 90.052 7.38045 90.052 8.79891C90.052 13.3985 107.676 9.65857 107.676 20.2333C107.676 24.2741 105.056 28.9595 95.482 28.9595Z" fill="black"/>
<path d="M127.806 28.9595C117.708 28.9595 114.183 25.3917 114.183 18.8148H121.852C121.995 21.6088 123.186 23.4573 127.615 23.4573C131.569 23.4573 132.521 21.9959 132.521 20.6204C132.521 15.2899 114.707 19.1157 114.707 9.4869C114.707 4.67229 117.518 0.674864 127.091 0.674864C136.808 0.674864 139.523 4.80104 139.666 10.3895H132.045C131.902 8.06844 131.14 6.17702 126.853 6.17702C123.28 6.17702 122.376 7.38045 122.376 8.79891C122.376 13.3985 140 9.65857 140 20.2333C140 24.2741 137.38 28.9595 127.806 28.9595Z" fill="black"/>
</svg>
