<svg width="143" height="28" viewBox="0 0 143 28" fill="none" xmlns="http://www.w3.org/2000/svg">
<path d="M54.0335 6.69526C51.1297 6.69526 48.8482 8.19186 48.8482 11.0261C48.8482 13.8822 51.1297 15.3556 54.0335 15.3556H63.6739C66.4825 15.3556 68.884 13.8366 68.884 11.0261C68.884 8.21419 66.4591 6.69526 63.6992 6.69526H54.0335ZM63.1467 0.369865C69.5803 0.369865 75.2454 3.88383 75.2454 11.0024C75.2454 18.0768 69.6276 21.7046 63.1702 21.7046H54.5372C48.0802 21.7046 42.462 18.0991 42.462 11.0024C42.462 4.02092 48.1041 0.369865 54.5372 0.369865H63.1467Z" fill="white"/>
<path d="M78.8135 24.4861C78.8135 26.4001 77.2158 27.9514 75.2455 27.9514C73.2752 27.9514 71.6774 26.4001 71.6774 24.4861C71.6774 22.5725 73.2752 21.0212 75.2455 21.0212C77.2158 21.0212 78.8135 22.5725 78.8135 24.4861Z" fill="white"/>
<path d="M36.7059 0.400247V27.3876H28.7959V11.3315L21.7733 27.3876H14.9362L7.86674 11.2899V27.3876H0V0.400247H9.62192L18.447 20.7241L27.0858 0.400247H36.7059Z" fill="white"/>
<path d="M97.3237 28C87.0312 28 83.4383 24.4681 83.4383 17.9574H91.255C91.4006 20.7233 92.6147 22.5532 97.1289 22.5532C101.159 22.5532 102.13 21.1065 102.13 19.7448C102.13 14.468 83.9723 18.2553 83.9723 8.72336C83.9723 3.9572 86.8368 0 96.5954 0C106.5 0 109.266 4.08466 109.412 9.61685H101.644C101.499 7.31918 100.722 5.44679 96.3528 5.44679C92.7107 5.44679 91.7889 6.63811 91.7889 8.0423C91.7889 12.5956 109.753 8.8933 109.753 19.3616C109.753 23.3617 107.082 28 97.3237 28Z" fill="white"/>
<path d="M130.271 28C119.978 28 116.386 24.4681 116.386 17.9574H124.202C124.348 20.7233 125.562 22.5532 130.076 22.5532C134.106 22.5532 135.077 21.1065 135.077 19.7448C135.077 14.468 116.92 18.2553 116.92 8.72336C116.92 3.9572 119.784 0 129.543 0C139.447 0 142.214 4.08466 142.36 9.61685H134.592C134.446 7.31918 133.669 5.44679 129.3 5.44679C125.658 5.44679 124.736 6.63811 124.736 8.0423C124.736 12.5956 142.7 8.8933 142.7 19.3616C142.7 23.3617 140.03 28 130.271 28Z" fill="white"/>
</svg>
